PathFileType	4	(X/Y/Z)	D:\TRACE\v60_Jaco2_6-2-23\JustArmDRS_Motion2_2-v60.trc
DataRate	CameraRate	NumFrames	NumMarkers	Units	OrigDataRate	OrigDataStartFrame	OrigNumFrames
100.00	100.00	      27	9	mm	100.00	3503	      7005
Frame#	Time	front left toe			Front right toe			aft left toe			aft right toe			Arm			FL body			FR body			AL Body			AR Body			
		X1	Y1	Z1	X2	Y2	Z2	X3	Y3	Z3	X4	Y4	Z4	X5	Y5	Z5	X6	Y6	Z6	X7	Y7	Z7	X8	Y8	Z8	X9	Y9	Z9	

3503	35.020	-154.50175	39.29483	-151.34767	253.00160	37.83860	-195.78934	-88.03903	-19.63734	449.20212	314.94574	-19.12149	437.90311	128.13071	1128.29578	-614.09967	-27.72935	599.98267	-287.51416	131.53331	594.50037	-305.72510	79.13290	553.91907	651.06757	236.89420	543.27844	634.42865	
3504	35.030	-155.25069	39.47475	-151.13808	252.45979	37.87893	-195.66307	-88.44098	-19.99122	449.43204	314.46136	-19.46186	437.94992	128.85655	1128.88574	-613.23206	-27.53256	600.32452	-286.95639	131.70300	595.05011	-306.18423	79.30170	553.51392	651.35565	235.80086	542.98981	635.79730	
3505	35.040	-155.87132	39.67989	-150.98087	252.17529	37.93261	-195.56967	-89.27814	-19.90947	449.53931	313.69891	-19.78284	437.88361	128.94394	1129.51855	-612.56433	-27.66921	600.57709	-286.74750	131.11833	594.99091	-305.16061	79.09790	553.02820	651.72766	235.77444	542.02808	635.06079	
3506	35.050	-156.24437	39.77893	-150.87022	251.45633	37.82327	-195.59920	-89.28560	-20.20312	449.78436	313.39886	-19.83188	437.90387	129.09520	1130.02087	-611.83130	-28.18479	600.96246	-286.30255	131.15567	595.57849	-305.12173	78.98750	552.65442	651.95776	235.81642	541.90558	636.32666	
3507	35.060	-156.54111	39.73787	-150.94965	250.82133	37.85681	-195.42027	-89.62266	-20.21878	449.82245	312.81787	-20.01182	438.01804	129.18271	1130.40100	-611.13599	-28.42506	601.36792	-285.92630	131.06956	595.76196	-305.08328	78.85394	552.20660	652.20874	235.73753	541.60132	636.70142	
3508	35.070	-157.11546	39.87157	-150.92378	250.34264	38.06141	-195.33316	-90.28172	-20.32238	449.85272	312.13046	-20.18188	438.09561	129.18462	1130.49548	-610.48743	-28.38233	601.75800	-285.57477	130.80078	595.90027	-304.77771	79.24240	551.88281	652.31342	235.55849	541.28778	637.00525	
3509	35.080	-157.85513	40.12569	-150.82718	250.02812	38.15102	-195.31482	-90.62499	-20.73373	450.07153	311.46957	-20.30942	438.06168	129.09181	1130.78845	-609.88287	-28.55589	602.06445	-285.33167	130.19284	595.83209	-304.18829	78.99692	551.52551	652.53815	235.34277	540.58868	637.41754	
3510	35.090	-158.62793	40.29250	-150.79994	249.37210	38.02031	-195.31087	-90.92216	-20.92263	449.96851	310.80438	-20.46698	438.03354	129.08208	1131.05322	-609.53455	-28.95667	602.39435	-285.15530	130.35889	596.13538	-304.14142	78.73778	551.34912	653.03491	235.34962	540.27313	637.56390	
3511	35.100	-158.93489	40.33519	-150.72330	248.33104	37.91463	-195.34865	-92.61816	-20.40897	449.81113	310.41055	-20.42966	438.07043	129.02103	1131.37036	-609.19867	-29.34536	602.49768	-284.94095	129.97641	596.30078	-303.81668	78.41084	551.20416	653.17419	235.23743	540.10382	637.62701	
3512	35.110	-159.50708	40.19055	-150.76068	247.67961	38.01760	-195.43312	-93.33953	-20.29265	449.87451	309.83899	-20.39223	438.15024	128.87689	1131.65295	-608.98676	-29.73523	602.60498	-284.74561	129.67255	596.30072	-303.63538	78.12910	551.03607	653.30261	234.94547	539.92114	637.76685	
3513	35.120	-160.28198	40.34607	-150.65300	247.36876	38.07665	-195.28714	-93.74868	-20.35995	449.95541	309.26035	-20.47071	438.12286	128.47067	1131.75818	-608.63074	-30.24216	602.83185	-284.51767	129.19859	596.40326	-303.62186	77.97981	550.79395	654.18201	234.60310	539.66364	637.75787	
3514	35.130	-161.10374	40.42830	-150.54222	246.78333	38.09626	-195.20972	-94.45195	-20.28247	449.84180	308.07858	-20.69306	438.10571	128.05090	1131.79846	-608.48212	-30.49949	602.86108	-284.40213	128.62248	596.64606	-303.75528	77.74672	550.65662	654.27124	235.76332	539.47870	637.91766	
3515	35.140	-161.75882	40.34104	-150.55449	245.86925	37.93873	-195.18550	-95.40495	-20.13164	449.73764	307.51443	-20.59256	438.10266	127.47999	1131.85779	-608.28607	-30.96283	602.82898	-284.29584	127.51263	596.48773	-303.32587	77.04139	550.62885	653.72113	233.84448	539.38098	638.07251	
3516	35.150	-162.09984	40.21625	-150.78223	245.00610	37.70891	-195.22563	-95.99158	-20.26452	449.73358	307.07901	-20.42747	438.10663	127.01990	1131.92932	-608.11682	-31.60515	602.92596	-284.25534	127.04054	596.46088	-302.86935	76.70409	550.47504	653.86267	233.31474	539.07513	638.24786	
3517	35.160	-162.92970	40.17080	-150.70023	244.54135	37.63937	-195.22983	-96.30688	-20.31330	449.79828	306.36685	-20.34718	438.00208	126.88224	1131.92590	-608.03735	-32.56621	603.21185	-284.15732	126.69851	596.51563	-302.87646	76.31401	550.31720	653.90076	233.08522	539.02777	638.32715	
3518	35.170	-163.90714	40.16748	-150.71191	243.70045	37.71236	-195.16048	-97.47107	-19.96382	449.84677	305.38431	-20.27054	437.97653	126.66159	1131.95679	-607.95087	-33.04815	603.32330	-284.19763	126.40899	596.80994	-303.20270	75.88818	550.17188	653.93005	232.85065	538.96680	638.34161	
3519	35.180	-164.84798	40.00683	-150.88416	242.84944	37.59675	-195.33319	-99.76595	-18.98437	449.85602	304.80630	-20.26230	438.02466	126.10795	1132.07593	-607.72205	-33.83952	603.36786	-284.27930	125.60641	596.89374	-303.21582	75.74525	550.01294	653.58771	232.07716	538.58667	638.18109	
3520	35.190	-165.26518	39.81403	-150.89027	242.28978	37.53648	-195.51616	-100.39846	-18.56273	449.82709	304.17264	-20.15704	438.06375	125.41094	1132.34253	-607.59125	-34.55580	603.54187	-284.12762	124.85589	596.94269	-303.08871	75.30795	549.96918	653.64917	231.76927	538.50446	638.08490	
3521	35.200	-166.03703	39.76875	-150.85507	241.32817	37.50554	-195.53705	-100.93633	-18.49781	449.75348	303.08179	-20.02098	437.94760	124.77393	1132.54773	-607.43365	-35.17198	603.66919	-283.93454	124.03072	596.87195	-302.91992	74.82307	549.89954	653.65485	231.39545	538.41235	638.18884	
3522	35.210	-167.12505	40.09908	-150.88567	240.42963	37.38374	-195.70331	-100.57433	-19.13310	449.95041	302.42459	-19.63689	437.84570	124.27750	1132.67224	-607.40802	-35.69209	603.73694	-283.97195	123.55332	597.14795	-303.25113	74.05285	549.81366	653.64392	230.90437	538.23340	638.15369	
3523	35.220	-167.81848	40.00074	-151.10246	239.72942	37.27731	-195.88466	-102.59664	-18.11291	449.70901	301.86475	-19.35671	437.83426	123.70827	1132.79590	-607.32532	-36.33329	603.83411	-283.87024	122.77265	597.24542	-303.24551	73.55439	549.59790	653.53284	230.28471	538.12299	638.13892	
3524	35.230	-168.45218	39.59146	-151.29866	238.99544	37.16628	-195.97397	-103.33205	-17.84050	449.68945	300.60272	-19.51326	437.65131	122.74354	1133.04126	-607.15710	-37.37855	604.19482	-283.87598	121.43645	597.19373	-302.95367	72.84942	549.47260	653.71362	229.55690	537.69135	637.90057	
3525	35.240	-169.39903	39.40978	-151.36349	238.00934	37.00906	-196.13329	-103.77274	-17.85099	449.65775	299.98505	-19.21139	437.71738	121.51750	1133.36255	-606.99609	-38.36119	604.44318	-284.15430	121.14352	597.53760	-303.44025	72.27617	549.34637	653.59637	228.81075	537.72101	638.00232	
3526	35.250	-170.32080	39.32582	-151.37936	237.30072	36.89812	-196.17363	-104.76503	-17.44955	449.59314	299.26602	-18.83805	437.75659	121.14761	1133.62305	-606.93298	-39.06187	604.53461	-284.14450	120.00867	597.75580	-303.90445	71.40188	549.24213	653.51581	228.27731	537.77332	637.99988	
3527	35.260	-171.02003	39.26798	-151.53087	236.34642	36.59727	-196.25139	-105.71055	-17.16342	449.59836	298.01358	-18.75097	437.59811	120.64582	1133.95544	-606.83185	-39.70745	604.50146	-284.03424	119.33726	597.83643	-304.22311	70.57933	549.07483	653.48743	227.44690	537.62164	637.67871	
3528	35.270	-171.85764	39.05885	-151.67599	235.32130	36.38362	-196.33716	-106.28425	-16.91682	449.41620	297.36401	-18.16309	437.57938	118.91339	1134.15906	-606.69214	-40.47406	604.61810	-283.96472	118.28530	598.12079	-304.48560	69.94933	548.98846	653.44910	226.83658	537.49976	637.66296	
3529	35.280	-173.18268	38.86144	-151.81696	234.10445	36.13908	-196.49533	-107.31275	-16.48255	449.35373	296.56833	-17.75197	437.43390	117.83601	1134.28833	-606.75598	-41.69033	604.87280	-284.14246	117.70770	598.17590	-303.69196	69.32551	548.88916	653.39032	225.98128	537.46722	637.58685	
